# xmcd
#
# Track frame offsets:
#	150
#	8307
#	19925
#	42563
#	72724
#	103544
#	137905
#	158975
#	175348
#	197187
#	229163
# Disc length: 3384 seconds
# Revision: 1
# Processed by: cddbd v1.5.2PL0 Copyright (c) Steve Scherf et al.
#
# Submitted via: libkcddb 0.10
#
DISCID=970d360b
DTITLE=Various: CENTRE DE DEVELOPPEMENT ET DE RECHERCHE DES ARCHIVES DE LA MUSIQUE CUBAINE - RETROSPECTIVE OFFICIELLE DES MUSIQUES CUBAINES [CD 4)
DYEAR=1900
DGENRE=Unknown
TTITLE0=El Sungambelo (contradanza)
TTITLE1=La Bohemia (danza)
TTITLE2=El Bombin de Barreto(danzon)
TTITLE3=El cadete constitucional (danzon)
TTITLE4=Para Elizabeth (danzon)
TTITLE5=Silver Star (cha cha cha)
TTITLE6=No puedo vivir (bolero-cha)
TTITLE7=Para quererte cancion)
TTITLE8=Baila mi son (son)
TTITLE9=Suena el Timbal (son)
TTITLE10=De mi hacia ti (danzon)
EXTD=
EXTT0=
EXTT1=
EXTT2=
EXTT3=
EXTT4=
EXTT5=
EXTT6=
EXTT7=
EXTT8=
EXTT9=
EXTT10=
PLAYORDER=
